<?xml version="1.0" standalone="no"?>
<!DOCTYPE svg PUBLIC "-//W3C//DTD SVG 20010904//EN"
 "http://www.w3.org/TR/2001/REC-SVG-20010904/DTD/svg10.dtd">
<svg version="1.0" xmlns="http://www.w3.org/2000/svg"
 width="468.000000pt" height="615.000000pt" viewBox="0 0 468.000000 615.000000"
 preserveAspectRatio="xMidYMid meet">

<g transform="translate(0.000000,615.000000) scale(0.100000,-0.100000)"
fill="#000000" stroke="none">
<path d="M1684 6113 c8 -51 8 -52 0 -100 -6 -36 -4 -42 16 -53 l23 -12 -37
-34 c-42 -38 -45 -51 -13 -56 18 -2 22 -9 23 -43 0 -22 -2 -42 -5 -45 -4 -3
-14 -17 -24 -32 -16 -26 -16 -29 2 -62 14 -24 18 -45 14 -75 -5 -36 -2 -45 21
-66 37 -34 33 -45 -19 -45 -25 0 -45 -4 -45 -9 0 -16 130 -23 485 -26 680 -7
922 -20 957 -52 12 -11 18 -31 18 -59 0 -54 8 -74 29 -74 26 0 41 21 42 60 1
36 3 31 14 -32 l6 -38 127 0 c89 0 132 4 141 13 11 10 14 10 18 0 3 -7 11 -13
20 -13 24 0 60 -34 57 -54 -2 -16 1 -15 24 7 34 31 47 26 74 -26 11 -23 40
-63 63 -88 32 -35 49 -64 64 -115 29 -99 32 -118 24 -131 -7 -10 -124 -20
-265 -22 -21 -1 -28 -7 -33 -31 -4 -16 -4 -33 -1 -38 3 -5 38 -5 78 0 40 4
110 12 156 18 45 5 88 7 95 5 6 -3 24 -29 40 -58 15 -28 58 -83 97 -122 38
-38 69 -77 70 -86 0 -12 -14 -18 -59 -22 -99 -11 -150 -29 -182 -64 -44 -51
-16 -85 46 -55 31 16 120 42 143 42 6 0 12 -6 12 -14 0 -15 -41 -29 -62 -21
-9 4 -19 -6 -29 -27 -13 -30 -19 -34 -74 -40 -72 -9 -88 -15 -80 -28 4 -6 47
-8 113 -4 138 7 168 11 187 30 28 28 10 104 -24 104 -8 0 -6 6 4 16 14 15 23
15 71 5 31 -7 76 -22 101 -33 39 -17 57 -19 135 -13 49 4 88 3 87 -1 -1 -5 1
-16 5 -25 5 -13 23 -17 72 -18 36 -1 90 -10 120 -20 l54 -18 0 73 c0 40 -4 76
-10 79 -5 3 -10 12 -10 18 0 7 4 6 10 -3 7 -10 10 15 10 79 l0 94 -23 -21
c-13 -12 -29 -22 -35 -22 -7 0 -12 -4 -12 -10 0 -5 -15 -1 -32 9 -49 28 -98
37 -98 17 0 -20 -37 -81 -41 -69 -2 5 -22 20 -44 33 -22 13 -72 48 -111 76
-119 88 -278 164 -342 164 -50 0 -69 23 -86 107 -21 97 -47 162 -82 209 -16
20 -29 43 -30 52 -2 9 -15 37 -29 64 -24 44 -25 48 -8 49 12 1 10 3 -7 8 -40
12 68 24 148 17 124 -12 463 -16 482 -6 9 5 25 25 34 43 15 34 17 34 58 27 24
-5 91 -12 151 -16 l107 -7 0 387 0 386 -1469 0 c-1391 0 -1470 -1 -1474 -17
-4 -17 -5 -17 -6 0 -1 11 -9 17 -27 17 -25 0 -26 -2 -20 -37z m66 -173 c0 -5
-4 -10 -10 -10 -5 0 -10 5 -10 10 0 6 5 10 10 10 6 0 10 -4 10 -10z m1870
-682 c0 -5 -4 -8 -10 -8 -5 0 -10 10 -10 23 0 18 2 19 10 7 5 -8 10 -18 10
-22z m408 -502 c31 -12 84 -39 116 -59 63 -38 196 -152 196 -168 0 -21 -202 3
-261 32 -30 14 -179 184 -179 204 0 23 61 19 128 -9z m276 -295 c14 -22 -52
-27 -80 -6 -18 13 -16 14 28 15 26 0 49 -4 52 -9z"/>
<path d="M1626 5893 c-4 -9 -2 -21 4 -27 7 -7 10 -2 10 17 0 31 -5 34 -14 10z"/>
<path d="M1799 5406 c-3 -3 -162 -8 -353 -10 -192 -3 -350 -6 -352 -9 -2 -2
-5 -24 -7 -50 -1 -25 -6 -49 -9 -52 -4 -4 -4 -13 -1 -21 4 -10 -3 -14 -26 -14
-18 0 -42 -7 -55 -15 -17 -11 -66 -17 -182 -23 l-159 -7 -6 -40 c-4 -22 -3
-62 3 -89 7 -34 7 -55 -1 -73 -9 -19 -8 -27 4 -39 8 -9 15 -26 15 -39 0 -13 3
-32 7 -42 6 -16 5 -16 -10 -5 -8 8 -18 23 -20 35 -2 12 -2 0 1 -28 2 -27 8
-51 13 -53 5 -2 9 -8 9 -13 0 -6 -4 -7 -10 -4 -11 7 -13 -6 -4 -29 3 -9 11
-13 16 -10 6 4 6 -1 0 -13 -6 -11 -7 -25 -2 -33 5 -8 7 -17 4 -21 -2 -4 0 -10
6 -14 5 -3 10 -11 10 -16 0 -6 -4 -8 -9 -5 -4 3 0 -25 11 -62 10 -37 21 -85
25 -107 3 -22 10 -45 15 -52 6 -7 5 -14 -3 -18 -43 -27 128 -335 325 -587 42
-53 72 -99 68 -101 -4 -3 -22 -8 -41 -12 -92 -20 -150 -65 -157 -122 -6 -47
-2 -52 61 -82 76 -36 84 -38 180 -59 152 -33 157 -34 221 -2 32 15 65 26 73
23 9 -3 27 -9 41 -13 14 -5 44 -14 68 -20 23 -6 42 -15 42 -20 0 -6 -3 -9 -7
-9 -20 3 -34 -2 -29 -10 10 -16 -17 -19 -154 -16 -152 3 -298 20 -349 41 -19
8 -43 12 -54 8 -11 -3 -17 -2 -14 3 3 4 -6 13 -19 20 -41 19 -27 -1 58 -87 98
-97 214 -185 222 -167 3 9 5 8 5 -1 1 -17 13 -28 76 -72 28 -19 55 -39 60 -45
32 -30 79 -113 91 -157 12 -47 12 -51 -7 -55 -10 -3 -16 -10 -12 -16 4 -6 0
-8 -10 -4 -10 3 -17 2 -17 -3 0 -6 -10 -10 -23 -10 -43 0 -55 -20 -66 -112
-12 -103 -43 -172 -101 -224 -22 -20 -38 -40 -35 -44 3 -4 -3 -7 -13 -6 -9 0
-16 -4 -15 -11 2 -7 -7 -17 -18 -23 -33 -18 -59 -43 -59 -57 0 -7 -4 -12 -9
-11 -5 2 -10 -1 -11 -7 -2 -5 -11 -15 -20 -22 -50 -35 -83 -200 -54 -270 34
-85 125 -152 252 -184 28 -7 52 -16 52 -21 0 -14 -34 -48 -50 -49 -11 0 -10
-2 3 -8 17 -6 16 -9 -8 -33 -14 -15 -61 -39 -103 -53 -42 -15 -95 -35 -117
-45 -22 -9 -57 -23 -77 -29 -21 -7 -38 -17 -38 -22 0 -5 -9 -9 -20 -9 -12 0
-20 -7 -20 -17 0 -9 -3 -14 -6 -11 -8 9 -78 -12 -86 -26 -6 -8 -8 -7 -8 2 0 6
-5 12 -11 12 -6 0 -9 -7 -5 -15 4 -13 2 -14 -14 -5 -14 8 -20 8 -20 0 0 -28
-55 -48 -76 -28 -10 11 -34 -3 -34 -19 0 -8 -6 -13 -12 -11 -16 6 -35 -13 -40
-38 -2 -12 -12 -19 -25 -19 -12 0 -26 -5 -30 -9 -4 -5 -3 -6 4 -2 8 4 11 -1
10 -14 -1 -11 -6 -20 -12 -20 -5 0 -3 -5 5 -10 8 -5 10 -10 4 -10 -5 0 -15 5
-21 11 -8 8 -14 1 -22 -23 -9 -26 -17 -34 -34 -34 -12 1 -26 6 -30 11 -5 6 -6
0 -2 -11 9 -35 -44 -39 -118 -9 -12 5 -17 2 -17 -9 0 -9 7 -16 15 -16 8 0 15
-4 15 -10 0 -14 -43 -13 -57 1 -16 16 -36 0 -29 -24 4 -15 2 -17 -7 -8 -14 14
-30 14 -21 0 5 -8 1 -8 -14 0 -15 8 -23 7 -33 -5 -7 -8 -18 -13 -26 -10 -9 4
-13 -4 -13 -24 0 -22 5 -30 17 -30 14 0 15 -2 4 -12 -11 -11 -14 -10 -18 0 -3
6 -8 10 -12 7 -5 -2 -6 8 -4 23 3 19 2 23 -5 13 -6 -9 -12 -10 -16 -2 -5 7
-15 7 -32 1 -14 -6 -30 -7 -36 -4 -7 4 -8 2 -4 -4 4 -7 15 -12 24 -12 11 0 6
-8 -16 -22 -32 -23 -32 -24 -30 -93 l3 -70 30 2 30 3 -25 -12 c-14 -6 -27 -11
-30 -10 -4 0 -6 -10 -6 -23 0 -23 1 -23 28 -9 16 8 26 19 23 24 -3 4 1 10 7
13 10 3 10 7 1 19 -7 8 -10 17 -7 21 9 9 35 -4 28 -14 -3 -5 4 -9 15 -9 11 0
23 5 26 10 3 6 14 10 23 9 12 0 11 -3 -5 -9 -13 -6 -23 -18 -23 -30 0 -25 -27
-27 -33 -3 -4 17 -4 17 -12 -1 -5 -11 -3 -21 4 -26 9 -5 8 -9 -6 -15 -10 -5
-21 -8 -25 -7 -13 3 -1 -31 15 -40 27 -15 55 0 62 32 4 17 11 30 16 30 12 0
12 -17 -1 -25 -6 -3 -10 -10 -10 -16 0 -5 9 -4 20 3 10 7 23 9 27 5 4 -5 1
-12 -7 -17 -12 -8 -10 -10 8 -10 14 0 20 -4 17 -10 -4 -6 -15 -8 -25 -5 -10 3
-21 1 -24 -4 -4 -6 -14 -7 -23 -4 -13 5 -15 2 -10 -12 6 -15 5 -16 -8 -5 -13
11 -14 10 -9 -3 7 -18 34 -31 34 -16 0 6 7 9 15 5 9 -3 15 0 15 9 0 20 16 19
24 -1 9 -23 -3 -36 -25 -29 -11 4 -19 2 -19 -4 0 -14 23 -14 54 0 26 12 43 39
25 39 -6 0 -7 5 -3 11 4 7 16 1 34 -16 l28 -27 13 35 c8 22 18 34 28 32 22 -3
31 -57 12 -71 -10 -8 -11 -13 -3 -18 7 -4 12 -2 12 3 0 6 7 11 15 11 8 0 15
-7 15 -15 0 -9 -6 -12 -15 -9 -10 4 -15 0 -15 -15 0 -12 -6 -21 -12 -21 -9 0
-8 -4 2 -10 13 -8 11 -12 -10 -27 -37 -26 -49 -24 -58 10 -8 30 -11 32 -54 32
-26 -1 -46 3 -45 8 1 5 -4 12 -12 15 -8 3 -11 0 -7 -7 4 -6 -1 -19 -10 -29
-17 -16 -17 -17 4 -20 26 -4 29 -24 5 -43 -13 -11 -17 -11 -20 -1 -3 6 -11 12
-18 12 -8 0 -17 5 -20 10 -10 16 5 50 22 50 27 0 7 25 -23 28 -22 3 -26 1 -17
-8 6 -7 9 -26 6 -44 -4 -26 -1 -34 19 -43 14 -7 17 -12 8 -12 -9 -1 -26 6 -39
15 -18 13 -20 19 -10 26 11 7 9 8 -4 4 -10 -3 -26 -6 -35 -6 -13 0 -14 -2 -3
-9 9 -6 10 -11 2 -15 -20 -13 -11 -28 14 -24 17 4 25 1 25 -9 0 -9 6 -13 15
-9 8 3 19 -2 23 -11 6 -9 17 -14 29 -11 10 3 24 -1 30 -8 14 -15 -4 -24 -54
-30 -34 -3 -41 4 -22 23 6 6 7 13 2 16 -10 6 -47 -34 -51 -55 -1 -9 4 -18 12
-21 10 -4 13 -1 9 9 -3 8 1 14 9 14 7 0 14 -9 15 -20 1 -14 -4 -20 -20 -20
-16 0 -18 -3 -8 -9 23 -15 51 -1 51 25 0 13 4 24 9 24 5 0 8 -15 7 -32 -2 -40
20 -68 52 -68 19 0 22 -3 13 -13 -6 -8 -9 -16 -7 -18 3 -2 -9 -4 -25 -4 -15 0
-28 -4 -28 -10 0 -5 9 -9 19 -7 15 2 18 -1 14 -12 -8 -22 3 -20 28 4 15 14 24
16 29 9 9 -15 29 -2 29 18 0 10 -6 14 -20 10 -21 -5 -28 7 -10 18 14 9 1 27
-13 19 -7 -4 -8 -3 -4 1 4 5 -2 14 -14 21 -22 11 -22 11 4 17 15 4 27 16 31
32 4 17 11 23 19 18 7 -4 19 -8 27 -8 18 0 20 -27 2 -33 -7 -2 -10 2 -6 11 4
12 0 14 -15 10 -21 -5 -29 -23 -11 -23 5 0 20 -23 32 -50 15 -33 31 -52 46
-56 32 -9 18 -19 -26 -19 -28 0 -37 -4 -40 -19 -5 -23 22 -40 60 -39 42 2 44
3 28 13 -11 7 -11 10 -2 10 7 0 10 5 7 11 -4 6 3 13 16 16 22 6 21 8 -15 24
-21 9 -34 19 -29 22 5 3 21 0 35 -7 32 -17 61 1 61 39 0 14 4 28 9 31 6 4 5
10 -3 15 -10 6 -10 9 -2 9 7 0 10 6 7 14 -3 8 -12 12 -20 9 -8 -3 -14 1 -14
11 0 10 9 15 27 14 16 -1 39 2 53 6 l25 8 -22 -17 c-13 -9 -23 -21 -23 -27 0
-7 9 -2 19 9 11 12 26 23 33 26 10 4 8 10 -6 21 -18 15 -22 14 -43 -6 -13 -12
-26 -18 -30 -15 -3 4 -4 7 0 7 3 0 -1 16 -9 36 -14 34 -11 61 4 38 4 -6 23
-16 44 -23 20 -7 39 -18 42 -26 3 -8 12 -15 21 -15 8 0 15 -7 15 -16 0 -12 6
-15 25 -10 25 7 35 -8 13 -18 -7 -3 -4 -4 7 -1 11 2 27 0 35 -5 8 -5 11 -10 6
-10 -5 0 -3 -7 4 -15 6 -8 9 -19 5 -25 -5 -8 -11 -6 -19 6 -12 15 -13 15 -19
-7 -5 -19 -9 -21 -19 -11 -18 18 -26 15 -30 -9 -2 -17 -11 -23 -40 -26 -22 -2
-38 1 -38 7 0 5 -11 10 -25 10 -29 0 -31 -7 -8 -32 9 -10 11 -18 5 -18 -6 0
-14 5 -17 10 -4 6 -11 8 -16 4 -16 -9 -2 -20 30 -22 25 -2 29 1 24 14 -5 15
-1 16 31 10 23 -4 43 -3 51 4 15 12 31 -3 20 -20 -3 -5 1 -10 9 -10 19 0 20
-5 6 -31 -13 -24 2 -25 25 -2 16 16 16 18 -5 35 -22 18 -22 19 -5 38 14 16 20
17 27 8 6 -10 8 -10 8 0 0 6 7 12 15 12 8 0 15 -7 15 -15 0 -8 -9 -15 -20 -15
-27 0 -26 -5 15 -45 36 -37 50 -41 75 -25 12 8 13 11 1 19 -8 5 -11 16 -6 30
4 12 2 21 -4 21 -6 0 -11 -6 -11 -13 0 -8 -10 -22 -22 -33 -13 -10 -20 -15
-16 -10 4 5 4 14 -2 21 -10 12 -3 55 10 55 4 0 5 -11 2 -25 -2 -15 0 -25 8
-25 7 0 9 8 5 19 -4 13 3 26 25 44 17 14 26 29 20 32 -5 3 -10 1 -10 -5 0 -7
-12 -9 -30 -6 -16 2 -32 0 -36 -5 -10 -17 -22 -9 -17 11 3 11 10 17 15 14 6
-4 14 0 19 7 7 10 11 11 17 2 5 -8 14 -5 32 9 22 18 23 20 5 18 -41 -5 -55 0
-55 19 0 11 4 23 10 26 5 3 10 2 10 -4 0 -5 12 -4 27 5 38 19 40 19 51 -24 5
-20 10 -29 11 -19 1 15 8 18 41 16 21 -2 42 0 46 4 4 4 0 7 -9 7 -9 0 -17 5
-17 10 0 6 6 10 13 10 7 0 18 9 24 20 11 16 10 18 -2 14 -8 -4 -15 -1 -15 6 0
6 -4 8 -10 5 -5 -3 -10 -1 -10 5 0 12 53 2 58 -11 2 -4 10 -5 18 -2 8 3 14 19
14 40 0 29 2 33 14 24 9 -7 17 -8 20 -2 3 5 0 11 -6 14 -7 2 -10 7 -7 11 4 4
15 -1 25 -11 12 -13 19 -14 22 -5 2 6 10 12 18 12 8 0 14 6 14 14 0 8 6 16 13
19 17 5 47 -3 47 -14 0 -16 18 -9 23 9 4 16 5 16 6 0 1 -24 18 -23 31 2 6 11
16 20 23 20 8 0 7 -4 -3 -11 -13 -9 -13 -10 0 -6 8 2 17 12 19 23 3 19 26 38
46 39 6 0 11 10 13 21 2 12 12 24 23 27 22 6 26 -8 5 -16 -7 -3 -14 -17 -14
-31 1 -31 5 -32 27 -8 9 11 26 24 39 31 18 10 22 9 23 -4 1 -8 2 -21 3 -27 0
-7 7 -13 14 -12 6 1 19 2 27 3 8 0 15 8 15 16 0 17 18 19 40 5 8 -5 19 -5 25
-1 15 11 55 11 55 0 0 -6 9 -7 20 -4 16 5 20 2 20 -15 0 -12 -4 -19 -9 -15 -5
3 -13 -5 -17 -17 -4 -13 -2 -24 5 -26 7 -2 7 -8 -2 -17 -8 -8 -32 -12 -65 -10
-29 2 -52 -1 -52 -6 0 -5 6 -9 14 -9 12 0 26 -20 26 -36 0 -3 -13 2 -30 11
-27 14 -29 14 -23 -2 5 -15 3 -15 -10 2 -13 16 -17 17 -31 6 -9 -7 -16 -20
-16 -27 0 -8 -7 -14 -15 -14 -18 0 -19 12 -2 29 10 11 7 12 -13 5 -14 -4 -33
-7 -43 -6 -15 1 -15 -1 -3 -14 8 -8 20 -14 26 -14 7 0 9 -7 6 -16 -4 -9 -1
-23 6 -32 11 -13 9 -14 -15 -8 -23 6 -33 2 -55 -24 -27 -31 -42 -38 -42 -19 0
5 5 7 10 4 6 -3 10 -2 10 3 0 17 -30 22 -37 6 -3 -8 -3 -17 0 -21 4 -3 -3 -13
-14 -22 -14 -11 -20 -29 -21 -58 0 -40 -20 -65 -33 -42 -7 10 3 50 14 59 10 8
30 70 23 71 -4 0 -22 2 -40 3 -27 3 -30 1 -21 -10 6 -8 15 -11 20 -8 5 3 9 0
9 -5 0 -6 -7 -11 -16 -11 -14 0 -14 -3 -4 -15 7 -9 10 -19 6 -22 -4 -4 -11 -1
-15 6 -6 10 -10 10 -16 2 -4 -7 -1 -18 5 -26 9 -11 9 -15 1 -15 -6 0 -11 5
-11 10 0 6 -7 10 -16 10 -8 0 -12 5 -9 10 3 6 1 10 -6 10 -8 0 -8 4 1 15 11
13 10 14 -4 9 -10 -4 -14 -13 -10 -28 4 -18 -2 -25 -34 -39 -21 -9 -46 -17
-56 -17 -9 0 -15 -4 -12 -9 8 -12 -4 -41 -16 -41 -6 0 -8 11 -6 25 4 21 3 23
-9 14 -20 -17 -28 -3 -9 17 23 23 14 28 -38 20 -34 -5 -44 -11 -39 -22 3 -7 0
-14 -6 -14 -21 0 -11 -15 21 -33 32 -19 33 -19 15 1 -16 18 -16 20 -2 26 23 9
25 8 25 -9 0 -8 5 -15 12 -15 6 0 3 -10 -8 -22 -15 -18 -16 -20 -2 -9 11 8 28
11 43 7 14 -4 25 -2 25 4 0 5 9 10 20 10 11 0 20 5 20 10 0 6 -5 10 -11 10 -5
0 -7 5 -4 10 9 15 32 -12 37 -41 1 -13 8 -22 13 -19 13 6 7 30 -12 53 -9 9
-13 18 -10 18 24 5 33 3 39 -5 4 -6 11 -7 15 -2 4 4 -1 14 -11 22 -20 14 -20
14 0 14 10 0 25 -9 32 -21 11 -18 11 -23 -4 -33 -23 -18 -13 -41 19 -41 15 -1
26 4 24 10 -5 14 23 34 48 34 19 0 19 0 2 -13 -19 -15 -23 -36 -6 -36 6 0 18
18 26 40 9 22 19 40 23 40 3 0 16 9 29 21 12 11 29 18 37 15 19 -7 18 -24 -3
-29 -10 -2 -5 -3 11 -1 37 5 42 10 28 27 -9 11 -3 17 31 32 23 10 45 23 49 29
5 8 8 7 8 -1 0 -26 20 -12 21 15 0 24 1 25 9 7 5 -11 9 -16 9 -12 1 4 10 3 21
-3 13 -7 20 -7 20 -1 0 6 7 8 15 5 11 -4 13 -2 9 9 -3 9 -12 18 -20 21 -9 3
-12 10 -9 16 3 5 -3 10 -14 10 -11 0 -23 5 -26 10 -3 6 -2 10 4 10 5 0 18 3
28 6 15 5 15 4 3 -5 -12 -9 -11 -11 8 -11 12 0 22 -5 22 -11 0 -5 4 -7 10 -4
5 3 10 1 10 -5 0 -6 4 -9 10 -5 5 3 8 11 6 18 -1 7 -1 9 1 5 7 -12 33 -9 33 3
0 6 17 8 46 5 32 -3 44 -1 41 7 -2 7 -11 11 -20 11 -27 -2 -27 34 0 56 24 19
49 19 38 -1 -4 -5 -2 -9 3 -9 5 0 17 15 26 33 12 22 16 25 13 10 -6 -26 10
-40 26 -24 8 8 8 11 -2 11 -7 0 -9 5 -6 10 4 6 11 8 16 5 5 -4 9 2 9 12 0 19
18 43 32 43 4 0 4 -8 1 -17 -5 -13 -2 -15 11 -10 10 4 19 7 20 7 1 0 1 13 -2
30 -3 19 0 30 8 30 7 0 10 -7 6 -16 -5 -12 -2 -15 10 -10 13 5 15 2 11 -14 -6
-24 5 -26 23 -5 9 11 16 13 24 5 17 -17 36 -11 36 13 0 16 3 18 9 8 5 -8 14
-10 21 -6 7 4 16 1 22 -6 6 -9 7 -1 3 25 -6 34 -5 37 8 24 8 -8 17 -23 20 -34
3 -14 5 -12 6 9 1 27 14 36 26 17 12 -19 45 -11 45 10 0 11 7 20 15 20 8 0 15
-5 15 -11 0 -5 -5 -7 -12 -3 -7 5 -8 3 -3 -5 5 -9 10 -10 18 -2 19 19 26 12
23 -24 -2 -19 0 -32 5 -29 5 3 7 9 4 14 -3 5 -1 11 4 15 6 3 7 13 4 22 -5 13
-2 15 18 10 13 -4 27 -7 31 -7 4 0 5 -7 1 -16 -6 -15 -4 -15 18 -1 33 22 145
21 127 -1 -7 -8 3 -5 22 7 42 25 70 27 70 5 0 -13 3 -14 15 -4 8 7 21 10 29 7
10 -4 13 -1 9 8 -4 12 1 14 26 9 19 -4 31 -2 31 4 0 6 13 13 30 17 16 4 34 14
40 23 5 9 10 12 10 6 0 -9 31 -11 50 -4 3 1 9 2 14 1 5 -1 6 7 3 18 -7 30 32
44 128 45 64 1 88 5 95 16 12 20 -14 27 -105 31 l-70 3 75 5 c57 5 75 10 75
21 0 12 -15 16 -67 18 -38 2 -68 7 -68 11 0 5 16 18 35 30 23 13 35 28 35 42
0 13 7 30 15 38 21 24 22 82 1 113 -10 15 -16 31 -13 35 3 5 8 92 12 196 l8
187 -267 0 c-171 0 -266 4 -266 10 0 6 86 10 238 10 219 0 282 6 253 24 -19
12 -165 15 -178 4 -9 -7 -13 -7 -13 1 0 7 -20 11 -52 11 -29 0 -77 3 -106 7
-99 11 -31 23 140 23 100 0 169 4 173 10 4 6 -38 10 -117 11 -123 1 -397 14
-368 17 24 3 24 75 -1 98 -10 9 -19 27 -19 40 0 28 -65 64 -115 64 -26 0 -35
4 -35 16 0 13 -7 15 -30 11 -18 -4 -30 -2 -30 4 0 6 5 7 10 4 6 -3 10 -1 10 4
0 15 -10 14 -29 -4 -99 -91 -192 -147 -259 -153 -48 -4 -55 -2 -82 26 -18 20
-41 32 -62 34 l-33 3 -8 80 c-4 44 -12 100 -19 125 -11 48 -18 154 -23 402 -4
166 2 191 36 149 12 -15 25 -20 43 -17 36 7 48 16 42 32 -3 8 3 20 14 26 15
10 20 24 20 61 0 26 7 62 16 79 10 19 14 42 10 61 -5 23 2 48 26 97 18 36 36
66 40 68 4 2 5 9 2 16 -3 8 2 16 10 19 9 4 16 18 16 34 1 15 7 39 15 53 8 14
14 37 15 53 0 24 4 27 34 27 18 0 39 -7 46 -15 9 -10 9 -15 1 -15 -6 0 -11 -5
-11 -10 0 -7 24 -8 68 -4 49 4 63 3 52 -5 -12 -9 -11 -11 7 -11 12 0 25 5 29
12 4 7 3 8 -4 4 -7 -4 -12 -2 -12 3 0 6 9 11 20 11 11 0 20 7 20 15 0 8 7 15
15 15 9 0 30 16 48 35 24 27 40 35 65 35 18 0 42 5 52 10 21 11 20 -10 18 365
-1 105 0 220 1 258 1 42 -2 67 -8 67 -13 0 -15 47 -2 52 11 4 18 94 8 104 -4
4 -7 10 -7 14 0 10 47 30 73 31 16 1 14 3 -8 8 l-30 6 -5 192 c-3 105 -9 195
-13 199 -4 4 -7 1 -7 -7 0 -11 -2 -11 -10 1 -14 22 -12 47 6 65 9 9 14 25 11
35 -3 11 -1 18 3 15 5 -3 10 51 12 121 3 136 -1 148 -48 142 -41 -5 -40 18 0
32 24 8 36 18 36 30 0 10 3 25 6 34 4 9 1 16 -6 16 -6 0 -14 -9 -17 -20 -5
-20 -5 -20 -23 0 -13 15 -19 17 -23 8 -3 -7 -6 1 -6 19 -1 17 5 34 12 37 10 5
10 7 0 12 -20 9 -15 24 7 24 17 0 20 7 20 39 0 35 -3 39 -31 45 -71 14 -79 10
-79 -36 0 -32 -3 -39 -10 -28 -5 8 -10 27 -10 42 0 44 -28 52 -205 56 -88 2
-163 1 -166 -2z m-802 -419 c71 -66 89 -119 103 -305 12 -151 12 -164 -5 -195
-16 -30 -17 -45 -9 -130 5 -54 7 -97 3 -97 -4 0 -26 46 -50 103 -28 68 -42
115 -41 142 1 23 -11 75 -28 120 -30 82 -50 223 -50 351 0 74 8 76 77 11z
m-300 -269 c-3 -8 -6 -5 -6 6 -1 11 2 17 5 13 3 -3 4 -12 1 -19z m826 -375
c-18 -2 -48 -2 -65 0 -18 2 -4 4 32 4 36 0 50 -2 33 -4z m20 -1570 c-13 -2
-35 -2 -50 0 -16 2 -5 4 22 4 28 0 40 -2 28 -4z m-263 -683 c0 -14 7 -20 21
-20 11 0 17 -4 14 -10 -10 -16 -42 -12 -49 6 -9 24 -7 44 4 44 6 0 10 -9 10
-20z m550 -250 c21 -7 18 -8 -18 -9 -26 -1 -41 3 -37 9 7 11 19 11 55 0z m979
-203 c7 -16 -1 -264 -9 -304 0 -2 -7 -3 -15 -3 -8 0 -15 -5 -15 -11 0 -9 -4
-8 -14 0 -8 7 -12 26 -9 54 10 109 -5 139 -65 130 -21 -3 -45 -15 -55 -27 -16
-20 -18 -20 -28 -3 -7 12 -23 17 -59 17 -58 0 -69 19 -12 21 20 1 -53 10 -163
19 -110 10 -201 18 -202 19 -2 1 -3 10 -3 20 0 21 -18 30 -58 32 -18 1 -12 4
18 10 25 5 70 14 100 21 30 6 156 14 280 18 124 4 242 7 263 8 31 2 39 -2 46
-21z m-1014 -24 c31 -5 35 -8 20 -14 -29 -11 -275 -11 -275 0 0 15 187 25 255
14z m-360 -13 c-3 -5 -15 -10 -26 -10 -10 0 -19 5 -19 10 0 6 12 10 26 10 14
0 23 -4 19 -10z m-770 -90 c3 -5 1 -10 -4 -10 -6 0 -11 5 -11 10 0 6 2 10 4
10 3 0 8 -4 11 -10z m1748 3 c-7 -2 -21 -2 -30 0 -10 3 -4 5 12 5 17 0 24 -2
18 -5z m-1753 -27 c0 -3 -4 -8 -10 -11 -5 -3 -10 -1 -10 4 0 6 5 11 10 11 6 0
10 -2 10 -4z m2065 -6 c3 -5 1 -10 -4 -10 -6 0 -11 5 -11 10 0 6 2 10 4 10 3
0 8 -4 11 -10z m-2095 -20 c0 -5 -2 -10 -4 -10 -3 0 -8 5 -11 10 -3 6 -1 10 4
10 6 0 11 -4 11 -10z m1900 1 c0 -5 -9 -7 -20 -4 -11 3 -20 7 -20 9 0 2 9 4
20 4 11 0 20 -4 20 -9z m-281 -43 c0 -31 -1 -31 -10 -10 -5 13 -7 28 -3 33 10
16 14 9 13 -23z m-1649 12 c0 -5 -5 -10 -11 -10 -5 0 -7 5 -4 10 3 6 8 10 11
10 2 0 4 -4 4 -10z m15 -23 c-10 -8 -15 -18 -12 -24 4 -6 -6 -16 -21 -22 -26
-12 -26 -12 -9 7 14 15 15 21 5 25 -8 3 -4 9 12 15 35 15 47 14 25 -1z m2066
-52 c3 2 5 -7 5 -20 0 -19 -5 -25 -23 -25 -14 0 -23 6 -23 16 0 8 -4 12 -10 9
-5 -3 -10 -1 -10 4 0 6 8 11 18 12 10 0 12 3 4 6 -6 2 -9 9 -6 15 4 5 13 3 23
-6 10 -9 20 -14 22 -11z m-226 3 c14 -6 25 -15 25 -20 0 -15 -31 -8 -52 12
-24 22 -12 26 27 8z m105 1 c0 -5 4 -8 9 -5 5 3 9 -6 9 -20 0 -22 -4 -25 -25
-21 -18 3 -27 -1 -33 -17 -9 -21 -12 -14 -12 24 0 38 2 42 18 36 8 -3 12 -2 9
4 -3 6 1 10 9 10 9 0 16 -5 16 -11z m-2043 -21 c-3 -8 -6 -5 -6 6 -1 11 2 17
5 13 3 -3 4 -12 1 -19z m1626 15 c-7 -2 -19 -2 -25 0 -7 3 -2 5 12 5 14 0 19
-2 13 -5z m-1486 -25 c-2 -7 2 -20 10 -29 12 -14 12 -17 -1 -22 -10 -4 -13 -1
-9 8 3 8 -2 18 -11 21 -13 5 -14 9 -5 20 14 17 22 18 16 2z m68 -8 c-3 -5 -14
-10 -23 -9 -14 0 -13 2 3 9 27 11 27 11 20 0z m1915 -29 c0 -26 -16 -35 -24
-15 -10 25 -7 34 9 34 8 0 15 -9 15 -19z m115 9 c3 -6 -1 -7 -9 -4 -9 3 -16 1
-16 -5 0 -6 -7 -8 -17 -4 -15 6 -15 7 3 14 27 11 32 10 39 -1z m-2235 -16 c0
-11 -5 -14 -16 -10 -9 3 -18 6 -20 6 -3 0 -2 5 1 10 10 16 35 12 35 -6z m-99
-13 c-8 -5 -20 -7 -28 -4 -15 6 -19 -32 -3 -42 6 -3 10 -10 10 -16 0 -5 -4 -9
-10 -9 -5 0 -9 6 -7 13 2 12 -9 13 -53 2 -21 -5 -22 -4 -5 4 14 7 15 10 5 11
-11 0 -10 4 5 12 11 7 26 18 33 25 7 7 25 13 40 13 20 0 23 -3 13 -9z m147
-26 c0 -14 -2 -25 -4 -25 -9 0 -24 42 -19 50 10 16 23 2 23 -25z m-373 -5 c-3
-5 1 -10 9 -10 9 0 13 -6 10 -13 -6 -16 12 -32 44 -40 17 -4 22 -1 22 15 0 10
5 16 10 13 6 -4 8 -11 5 -16 -4 -5 -1 -9 4 -9 15 0 14 -27 -1 -33 -7 -2 -9 -8
-5 -13 4 -4 17 -2 28 5 12 7 24 9 27 6 4 -4 -1 -11 -11 -16 -9 -6 -15 -14 -12
-20 3 -5 0 -6 -8 -3 -21 8 -29 -24 -9 -35 16 -10 16 -10 -1 -11 -11 0 -15 -5
-11 -11 4 -7 -1 -10 -12 -7 -11 2 -19 10 -19 17 0 8 -6 16 -14 19 -9 3 -11 0
-6 -8 5 -9 4 -11 -4 -6 -9 6 -9 11 1 23 8 10 14 11 16 4 2 -6 9 -11 15 -11 5
0 7 3 4 7 -4 3 -1 13 6 21 10 13 9 14 -2 8 -10 -7 -12 -3 -6 14 7 21 6 21 -19
5 -14 -10 -26 -21 -26 -26 0 -5 -7 -9 -15 -9 -8 0 -15 6 -15 14 0 23 -24 25
-38 2 -13 -20 -13 -20 -7 4 4 14 7 31 7 38 1 6 8 12 15 12 8 0 11 -5 7 -11 -3
-6 -1 -15 5 -19 19 -11 61 1 61 17 0 8 -4 11 -10 8 -5 -3 -10 -1 -10 4 0 6
-11 11 -24 11 -13 0 -30 8 -37 17 -12 15 -12 16 4 10 11 -4 17 -2 17 8 0 9 -6
12 -17 8 -15 -5 -14 -3 2 10 23 19 29 21 20 7z m99 -5 c-7 -17 -20 -20 -29 -6
-3 5 3 12 12 14 10 3 19 5 20 6 1 0 0 -6 -3 -14z m123 -7 c-3 -8 -6 -5 -6 6
-1 11 2 17 5 13 3 -3 4 -12 1 -19z m83 15 c-1 -9 -50 -47 -50 -39 0 5 41 46
47 46 2 0 3 -3 3 -7z m180 -13 c0 -5 -2 -10 -4 -10 -3 0 -8 5 -11 10 -3 6 -1
10 4 10 6 0 11 -4 11 -10z m-140 -14 c0 -8 3 -16 8 -19 4 -2 1 -2 -6 0 -15 3
-53 -15 -63 -30 -4 -5 -9 -5 -13 2 -4 6 -2 11 4 11 6 0 8 5 5 10 -6 9 8 14 28
11 4 -1 10 6 13 14 8 19 24 20 24 1z m230 -3 c12 10 12 9 3 -3 -13 -17 -68
-26 -58 -10 4 6 11 7 17 4 8 -5 9 -1 5 12 -7 18 -6 18 6 2 11 -14 16 -15 27
-5z m-680 -13 c0 -5 -5 -10 -11 -10 -5 0 -7 5 -4 10 3 6 8 10 11 10 2 0 4 -4
4 -10z m170 0 c0 -5 -7 -10 -15 -10 -8 0 -15 5 -15 10 0 6 7 10 15 10 8 0 15
-4 15 -10z m400 -27 c0 -12 -7 -14 -29 -10 -19 4 -31 2 -35 -6 -2 -7 -5 -5 -5
5 -1 12 -6 15 -18 11 -11 -4 -14 -3 -9 5 4 7 18 10 30 8 13 -2 29 0 36 4 17
11 30 4 30 -17z m40 17 c0 -5 -5 -10 -11 -10 -5 0 -7 5 -4 10 3 6 8 10 11 10
2 0 4 -4 4 -10z m123 -7 c-5 -14 -1 -15 28 -10 26 5 30 4 17 -4 -23 -13 -71
-6 -76 11 -3 7 0 10 6 6 6 -3 13 -2 17 4 10 16 15 12 8 -7z m-386 -13 c2 0 3
-4 3 -8 0 -9 -22 -8 -57 3 -36 11 -17 25 20 14 17 -5 33 -9 34 -9z m2197 -20
c12 0 27 9 34 21 13 21 13 21 39 -5 14 -14 35 -25 47 -25 15 1 17 2 4 6 -9 2
-19 12 -23 21 -5 14 -4 15 6 5 7 -7 21 -13 32 -13 11 0 17 -5 14 -12 -5 -17
-256 -14 -271 3 -8 9 -8 10 2 5 7 -4 15 -1 18 8 3 9 10 16 15 16 4 0 5 -7 2
-17 -4 -11 -3 -14 5 -9 7 4 12 14 12 22 0 11 5 10 22 -6 12 -11 31 -20 42 -20z
m-2574 21 c0 -6 -4 -12 -9 -16 -16 -9 -8 -45 11 -51 22 -7 24 -24 2 -24 -8 0
-13 4 -10 9 3 5 -2 11 -13 14 -18 4 -21 26 -6 60 8 18 25 24 25 8z m60 -12
c12 -8 10 -9 -8 -4 -17 5 -27 1 -37 -12 -7 -10 -17 -15 -21 -10 -8 8 24 36 41
37 6 0 17 -5 25 -11z m2305 1 c3 -5 -3 -10 -15 -10 -12 0 -18 5 -15 10 3 6 10
10 15 10 5 0 12 -4 15 -10z m-1740 -10 c3 -5 1 -10 -4 -10 -6 0 -11 5 -11 10
0 6 2 10 4 10 3 0 8 -4 11 -10z m95 -16 c0 -8 -4 -14 -9 -14 -11 0 -22 26 -14
34 9 9 23 -3 23 -20z m130 22 c0 -3 -4 -8 -10 -11 -5 -3 -10 -1 -10 4 0 6 5
11 10 11 6 0 10 -2 10 -4z m-395 -16 c3 -5 2 -10 -4 -10 -5 0 -13 5 -16 10 -3
6 -2 10 4 10 5 0 13 -4 16 -10z m42 4 c-3 -3 -12 -4 -19 -1 -8 3 -5 6 6 6 11
1 17 -2 13 -5z m73 -4 c0 -5 -4 -10 -10 -10 -5 0 -10 5 -10 10 0 6 5 10 10 10
6 0 10 -4 10 -10z m110 3 c0 -19 -116 -58 -125 -43 -3 5 -14 6 -25 3 -12 -3
-20 0 -20 7 0 9 10 10 35 6 28 -6 35 -4 35 9 0 8 4 15 10 15 5 0 7 -6 4 -14
-7 -19 16 -15 47 6 26 19 39 22 39 11z m-608 -26 c-7 -8 -9 -17 -5 -20 3 -4 1
-13 -5 -20 -7 -8 -9 -16 -6 -19 3 -3 0 -9 -7 -14 -7 -4 -10 -3 -5 4 3 5 1 12
-5 14 -8 3 -8 10 2 26 12 20 12 24 -1 33 -13 9 -12 10 2 5 10 -3 20 -1 24 5 3
6 8 8 11 5 3 -3 1 -12 -5 -19z m264 -12 c-11 -12 -16 -13 -16 -4 0 10 -3 10
-12 1 -17 -17 -28 -15 -28 4 0 12 7 15 25 12 14 -3 28 -1 31 4 3 5 8 7 11 4 3
-3 -2 -12 -11 -21z m535 16 c-11 -7 -8 -12 12 -26 14 -9 32 -13 39 -9 11 6 11
4 0 -7 -10 -11 -16 -11 -32 -1 -12 7 -21 8 -25 2 -12 -20 -26 -10 -15 10 13
25 -5 27 -19 3 -9 -17 -11 -17 -28 0 -16 16 -16 17 7 17 14 0 32 5 40 10 8 5
20 10 25 10 6 0 4 -4 -4 -9z m-181 -27 c0 -2 -9 -4 -20 -4 -11 0 -20 4 -20 9
0 5 9 7 20 4 11 -3 20 -7 20 -9z m-267 -15 c4 -16 3 -18 -9 -8 -7 6 -11 15 -8
20 8 13 11 11 17 -12z m40 -4 c-7 -21 -13 -19 -13 6 0 11 4 18 10 14 5 -3 7
-12 3 -20z m-483 -16 c0 -4 -6 -9 -13 -12 -12 -4 -14 10 -8 43 2 6 21 -23 21
-31z m1080 21 c0 -5 -2 -10 -4 -10 -3 0 -8 5 -11 10 -3 6 -1 10 4 10 6 0 11
-4 11 -10z m-930 -10 c0 -5 -8 -10 -17 -10 -15 0 -16 2 -3 10 19 12 20 12 20
0z m180 -21 c0 -5 -7 -9 -15 -9 -15 0 -20 12 -9 23 8 8 24 -1 24 -14z m40 11
c0 -5 -4 -10 -10 -10 -5 0 -10 5 -10 10 0 6 5 10 10 10 6 0 10 -4 10 -10z
m224 -5 c-4 -8 -10 -15 -15 -15 -4 0 -6 7 -3 15 4 8 10 15 15 15 4 0 6 -7 3
-15z m196 5 c0 -5 -5 -10 -11 -10 -5 0 -7 5 -4 10 3 6 8 10 11 10 2 0 4 -4 4
-10z m33 -5 c-3 -9 -8 -14 -10 -11 -3 3 -2 9 2 15 9 16 15 13 8 -4z m-119 -27
c-3 -4 0 -8 5 -8 6 0 11 -6 11 -14 0 -8 -8 -13 -17 -12 -12 1 -21 -10 -28 -31
-11 -39 -18 -41 -33 -9 -11 25 -7 36 12 36 6 0 4 -5 -4 -10 -8 -5 -10 -10 -4
-10 16 0 42 42 37 58 -3 6 -16 12 -29 12 -14 0 -23 4 -20 9 4 5 20 5 41 -2 19
-5 32 -14 29 -19z m406 16 c0 -2 -7 -4 -15 -4 -8 0 -15 4 -15 10 0 5 7 7 15 4
8 -4 15 -8 15 -10z m-968 -24 c-18 -16 -39 -30 -45 -30 -7 0 -4 5 7 11 10 6
27 20 37 30 11 11 22 19 26 19 4 0 -7 -13 -25 -30z m368 14 c0 -11 -5 -14 -16
-10 -9 4 -24 0 -33 -8 -9 -8 -25 -13 -36 -11 -11 2 -23 4 -27 4 -5 1 -8 8 -8
16 0 13 4 14 22 4 18 -10 24 -9 31 2 13 20 67 22 67 3z m-280 -27 c0 -5 -6 -7
-14 -4 -7 3 -19 0 -25 -6 -18 -18 -38 7 -22 27 10 12 18 13 37 4 13 -6 24 -15
24 -21z m660 23 c0 -5 -4 -10 -10 -10 -5 0 -10 5 -10 10 0 6 5 10 10 10 6 0
10 -4 10 -10z m-620 -15 c0 -8 -4 -15 -8 -15 -5 0 -9 7 -9 15 0 8 4 15 9 15 4
0 8 -7 8 -15z m75 5 c-3 -5 -12 -10 -18 -10 -7 0 -6 4 3 10 19 12 23 12 15 0z
m305 0 c0 -5 -4 -10 -10 -10 -5 0 -10 5 -10 10 0 6 5 10 10 10 6 0 10 -4 10
-10z m175 0 c-3 -5 -11 -10 -16 -10 -6 0 -7 5 -4 10 3 6 11 10 16 10 6 0 7 -4
4 -10z m-451 -15 c-4 -8 -16 -15 -27 -15 -20 0 -20 0 -1 15 25 19 35 19 28 0z
m216 -1 c0 -8 -8 -23 -17 -32 -16 -16 -16 -16 -9 3 5 11 9 26 9 33 1 18 17 15
17 -4z m265 6 c-3 -5 -12 -10 -18 -10 -7 0 -6 4 3 10 19 12 23 12 15 0z m-116
-36 c-12 -13 -17 -24 -11 -24 7 0 12 -7 12 -16 0 -9 5 -12 12 -8 7 4 8 3 4 -4
-4 -7 -19 -12 -34 -12 -24 0 -25 1 -7 13 12 10 14 16 7 21 -7 4 -16 4 -22 1
-6 -3 -7 1 -4 9 3 9 9 14 13 11 10 -6 41 32 33 41 -4 4 -1 4 6 0 11 -6 8 -13
-9 -32z m71 20 c0 -2 -9 -4 -21 -4 -11 0 -18 4 -14 10 5 8 35 3 35 -6z m130
-15 c0 -4 -9 -9 -20 -12 -11 -3 -20 -10 -20 -16 0 -15 33 -14 48 1 7 7 12 8
12 2 0 -16 -54 -38 -58 -25 -2 6 -14 11 -28 11 l-24 0 20 -35 c15 -27 17 -35
6 -35 -8 0 -16 6 -19 13 -3 9 -8 8 -22 -3 -17 -14 -17 -14 -5 7 8 12 18 19 23
16 5 -3 3 4 -4 15 -10 16 -17 18 -31 11 -14 -8 -16 -6 -11 7 4 12 3 15 -5 10
-7 -4 -12 -3 -12 2 0 4 24 8 52 8 48 -1 54 1 66 28 11 22 16 25 23 15 5 -8 9
-17 9 -20z m180 15 c0 -8 -5 -12 -10 -9 -6 4 -8 11 -5 16 9 14 15 11 15 -7z
m-960 -2 c0 -5 -6 -16 -13 -27 -13 -17 -14 -17 -20 4 -3 11 -1 19 4 15 5 -3 9
0 9 5 0 6 5 11 10 11 6 0 10 -4 10 -8z m157 2 c-3 -3 -12 -4 -19 -1 -8 3 -5 6
6 6 11 1 17 -2 13 -5z m187 -8 c-4 -9 2 -13 20 -11 17 2 26 -2 26 -11 0 -23
36 -16 50 11 7 14 17 25 22 25 10 0 3 -14 -21 -42 -19 -22 -44 -23 -61 -3 -7
9 -19 14 -26 11 -8 -3 -18 4 -24 14 -8 16 -8 20 4 20 9 0 13 -6 10 -14z m-304
-16 c-11 -7 -7 -10 17 -10 17 0 35 -4 38 -10 4 -6 -5 -10 -20 -10 -17 0 -24
-4 -19 -12 5 -8 2 -9 -10 -5 -14 6 -17 3 -12 -10 5 -15 4 -15 -9 1 -9 12 -12
28 -9 40 7 22 25 38 33 30 3 -3 -1 -9 -9 -14z m233 13 c-7 -2 -19 -2 -25 0 -7
3 -2 5 12 5 14 0 19 -2 13 -5z m427 -3 c-20 -13 -40 -13 -40 0 0 6 12 10 28
10 21 0 24 -2 12 -10z m-570 -10 c0 -5 -5 -10 -11 -10 -5 0 -7 5 -4 10 3 6 8
10 11 10 2 0 4 -4 4 -10z m123 -14 c16 -12 16 -14 1 -20 -25 -10 -41 -7 -24 4
13 9 13 11 0 20 -8 5 -10 10 -5 10 6 -1 18 -7 28 -14z m585 -4 c2 -7 -5 -12
-15 -11 -12 0 -14 2 -4 6 11 5 11 7 0 15 -12 8 -12 9 0 6 8 -3 17 -10 19 -16z
m-528 -16 c0 -7 -9 -16 -20 -19 -25 -6 -26 1 -2 19 22 17 22 17 22 0z m-435
-6 c-3 -5 -12 -10 -18 -10 -7 0 -6 4 3 10 19 12 23 12 15 0z m323 -15 c0 -15
-10 -30 -24 -40 -25 -16 -25 -17 -15 34 1 2 8 -2 16 -9 17 -15 19 -7 5 21 -8
15 -7 19 3 19 9 0 15 -10 15 -25z m306 -30 c3 -10 0 -23 -7 -27 -8 -5 -7 -8 5
-8 9 0 20 5 24 11 4 8 9 8 17 0 15 -15 23 -14 41 5 20 19 20 7 1 -40 -15 -35
-22 -40 -57 -37 -9 1 -18 -6 -21 -16 -3 -13 -5 -11 -6 6 l-1 25 -21 -22 c-11
-12 -24 -20 -29 -17 -13 8 -61 -25 -54 -37 4 -5 11 -5 18 1 7 6 16 8 20 4 4
-4 11 -1 15 6 7 11 13 10 33 -3 30 -20 54 -13 87 23 15 17 21 20 17 9 -3 -12
0 -18 10 -18 8 0 12 -4 9 -10 -3 -6 1 -7 9 -4 20 8 21 24 1 24 -29 0 -15 25
15 27 21 2 33 -4 40 -18 6 -11 15 -17 19 -14 9 5 21 -17 21 -36 0 -17 -20 -9
-21 9 0 14 -3 13 -16 -5 -8 -13 -23 -23 -32 -23 -14 1 -14 2 2 11 18 11 24 49
6 49 -5 0 -8 -4 -5 -9 3 -4 -5 -18 -18 -30 -20 -19 -28 -21 -48 -12 -19 10
-20 9 -6 -1 16 -11 15 -14 -10 -25 -26 -12 -12 -12 34 1 19 6 21 3 16 -21 -3
-16 -7 -22 -9 -15 -6 16 -22 15 -58 -4 -20 -10 -31 -12 -33 -4 -3 8 -8 8 -18
-1 -10 -8 -14 -8 -14 0 0 6 -6 11 -14 11 -7 0 -20 7 -27 16 -12 14 -14 14 -19
-2 -4 -10 -1 -25 6 -32 16 -15 13 -54 -4 -60 -7 -2 -12 3 -12 12 0 9 -7 16
-16 16 -9 0 -14 6 -11 13 2 6 10 11 16 9 7 -1 10 2 6 7 -3 6 -13 8 -23 5 -16
-5 -15 -4 1 9 17 14 16 15 -3 20 -11 3 -20 11 -20 17 0 7 8 10 20 7 11 -3 20
-4 20 -2 0 9 -33 35 -43 35 -8 0 -7 -3 2 -9 9 -6 10 -11 2 -15 -6 -4 -21 2
-33 14 -15 13 -25 17 -32 10 -15 -15 -23 -13 -46 12 -11 12 -20 17 -20 11 0
-7 -8 -14 -17 -16 -14 -4 -12 -5 5 -6 13 -1 22 -7 22 -17 0 -10 -5 -12 -12 -7
-23 14 -39 12 -51 -8 -6 -10 -19 -19 -29 -19 -17 0 -34 -17 -25 -26 3 -3 14
-1 25 5 15 8 21 8 25 -2 5 -17 -4 -47 -15 -47 -5 0 -7 4 -3 9 3 5 1 12 -4 15
-20 13 -21 -14 -1 -34 20 -20 28 -46 11 -36 -4 3 -16 0 -26 -8 -15 -11 -16
-16 -5 -36 10 -18 9 -24 -1 -31 -7 -4 -19 -3 -26 3 -9 7 -13 7 -13 -1 0 -7 -5
-9 -11 -5 -8 5 -4 13 12 26 13 11 18 17 11 13 -6 -3 -12 -2 -12 3 0 6 -9 8
-20 5 -11 -3 -20 -1 -20 3 0 13 49 34 66 27 15 -5 19 15 6 32 -4 6 -25 12 -47
14 -22 1 -44 7 -49 12 -6 5 -15 4 -22 -2 -14 -11 -34 -4 -34 12 0 6 5 7 11 3
6 -3 4 4 -5 17 -20 31 -17 68 7 80 15 9 18 7 15 -8 -2 -10 -9 -25 -17 -33 -12
-12 -10 -15 14 -21 31 -9 79 6 70 21 -10 16 -35 12 -35 -6 0 -9 -6 -14 -12
-11 -30 9 -12 32 30 38 36 5 46 2 58 -15 8 -11 14 -15 14 -8 0 6 3 11 8 10 4
-1 17 1 29 6 15 5 20 12 16 23 -4 11 -2 14 5 9 7 -4 12 -3 12 2 0 4 16 16 36
25 19 10 32 22 29 27 -4 6 -11 8 -16 4 -6 -3 -19 2 -30 11 -19 18 -19 18 1 50
11 18 17 35 13 38 -3 4 -1 7 5 7 7 0 12 5 12 10 0 6 -8 10 -17 10 -9 0 -14 3
-10 6 8 8 47 -5 47 -16 0 -5 -7 -16 -16 -24 -8 -9 -12 -16 -8 -16 3 0 1 -6 -5
-14 -15 -18 5 -34 22 -17 6 6 22 11 35 11 13 0 20 4 17 10 -7 11 6 13 29 4 9
-3 13 -10 10 -15 -3 -5 -10 -6 -16 -3 -6 4 -8 3 -5 -2 9 -15 -7 -33 -33 -38
-14 -2 -27 -5 -30 -6 -7 -2 62 -28 78 -29 6 -1 12 4 12 10 0 5 -4 7 -10 4 -5
-3 -10 -1 -10 4 0 6 5 11 10 11 6 0 10 9 10 19 0 19 19 31 48 31 11 -1 8 -6
-10 -16 -16 -8 -28 -23 -28 -34 0 -22 19 -28 21 -7 1 6 4 2 7 -10 5 -17 11
-20 22 -13 13 9 13 11 0 20 -8 5 -10 10 -5 11 6 0 1 5 -10 10 -17 8 -16 8 7 4
25 -5 27 -3 25 25 -2 24 -7 30 -27 31 -14 1 -32 2 -40 3 -8 2 -25 3 -37 4 -13
1 -23 7 -23 13 0 7 10 9 25 7 14 -3 25 -1 25 6 0 6 4 17 9 25 7 10 12 11 27 1
14 -8 15 -10 2 -6 -21 6 -31 -4 -17 -20 6 -7 18 -10 26 -7 12 5 14 3 8 -7 -5
-9 -4 -11 4 -6 15 10 53 -3 46 -15 -4 -5 0 -9 7 -9 9 0 9 -3 -2 -10 -9 -6 -11
-10 -3 -10 7 0 10 -7 7 -15 -4 -8 -12 -15 -19 -15 -8 0 -16 -4 -19 -8 -10 -16
29 -9 52 9 13 10 30 15 38 12 10 -4 12 0 8 11 -4 11 -13 15 -25 11 -15 -5 -19
-1 -19 19 0 19 -7 27 -36 36 -33 11 -34 13 -19 30 15 17 18 17 45 2 16 -9 31
-26 34 -37z m315 14 c-7 -4 -10 -11 -6 -15 3 -4 13 -1 21 5 8 7 20 10 26 6 20
-12 10 -25 -20 -25 -17 0 -30 -5 -30 -12 -1 -8 -6 -5 -15 5 -11 16 -11 21 3
36 9 10 21 16 26 13 4 -2 2 -8 -5 -13z m-735 -4 c-4 -8 -11 -12 -16 -9 -6 4
-5 10 3 15 19 12 19 11 13 -6z m576 5 c0 -5 -5 -10 -11 -10 -5 0 -7 5 -4 10 3
6 8 10 11 10 2 0 4 -4 4 -10z m293 -5 c-3 -9 -8 -14 -10 -11 -3 3 -2 9 2 15 9
16 15 13 8 -4z m-373 -5 c0 -5 -5 -10 -11 -10 -5 0 -7 5 -4 10 3 6 8 10 11 10
2 0 4 -4 4 -10z m-300 -26 c0 -8 -5 -12 -10 -9 -6 4 -8 11 -5 16 9 14 15 11
15 -7z m650 -2 c-21 -7 -40 -28 -33 -36 4 -3 22 -3 40 0 27 5 32 4 27 -9 -6
-18 -34 -31 -34 -17 0 15 -17 12 -34 -5 -8 -8 -19 -15 -25 -15 -19 0 -12 20
12 31 l22 10 -22 -5 c-13 -2 -23 0 -23 4 0 15 62 60 73 53 7 -4 6 -8 -3 -11z
m60 3 c0 -2 -7 -5 -15 -9 -9 -3 -15 0 -15 9 0 9 6 12 15 9 8 -4 15 -7 15 -9z
m-340 -5 c0 -5 -4 -10 -10 -10 -5 0 -10 5 -10 10 0 6 5 10 10 10 6 0 10 -4 10
-10z m605 -8 c-3 -3 -11 0 -18 7 -9 10 -8 11 6 5 10 -3 15 -9 12 -12z m868 3
c-3 -9 -8 -14 -10 -11 -3 3 -2 9 2 15 9 16 15 13 8 -4z m-1260 -1 c3 -4 0 -13
-8 -20 -8 -8 -12 -21 -9 -29 5 -12 -4 -15 -37 -17 -24 0 -51 0 -59 1 -8 1 -25
2 -37 2 -12 0 -35 5 -52 12 -29 12 -29 13 -10 25 16 10 20 10 25 -2 3 -8 12
-17 20 -20 21 -8 43 4 37 20 -4 11 6 14 46 14 28 0 51 5 51 10 0 11 23 14 33
4z m-230 -23 c-4 -3 -11 -10 -15 -15 -4 -4 -6 1 -5 12 1 12 6 18 15 15 7 -3
10 -9 5 -12z m367 9 c0 -5 -2 -10 -4 -10 -3 0 -8 5 -11 10 -3 6 -1 10 4 10 6
0 11 -4 11 -10z m175 -11 c-10 -15 -25 -10 -19 6 4 8 10 12 15 9 5 -3 7 -10 4
-15z m265 11 c0 -5 -2 -10 -4 -10 -3 0 -8 5 -11 10 -3 6 -1 10 4 10 6 0 11 -4
11 -10z m240 0 c0 -5 -4 -10 -10 -10 -5 0 -10 5 -10 10 0 6 5 10 10 10 6 0 10
-4 10 -10z m50 -10 c0 -5 -7 -10 -15 -10 -8 0 -15 5 -15 10 0 6 7 10 15 10 8
0 15 -4 15 -10z m-352 -36 c-14 -14 -15 -14 -10 11 3 19 8 23 15 16 8 -8 7
-16 -5 -27z m177 26 c3 -5 1 -10 -4 -10 -6 0 -11 5 -11 10 0 6 2 10 4 10 3 0
8 -4 11 -10z m-125 -4 c0 -2 -7 -6 -15 -10 -8 -3 -15 -1 -15 4 0 6 7 10 15 10
8 0 15 -2 15 -4z m19 -38 c0 -13 -3 -17 -6 -11 -3 8 -15 11 -31 7 l-27 -6 25
15 c35 21 40 20 39 -5z m82 -1 c-10 -9 -11 -8 -5 6 3 10 9 15 12 12 3 -3 0
-11 -7 -18z m-1337 7 c9 -3 16 -11 16 -16 0 -6 -7 -8 -15 -4 -8 3 -15 0 -15
-6 0 -9 -3 -9 -11 -1 -6 6 -8 16 -5 22 8 13 9 13 30 5z m346 -20 c0 -8 -4 -12
-10 -9 -5 3 -10 10 -10 16 0 5 5 9 10 9 6 0 10 -7 10 -16z m-512 -21 c16 -16
16 -16 -1 -10 -10 4 -27 7 -38 7 -10 0 -19 5 -19 10 0 16 40 11 58 -7z m1422
-13 c0 -13 -11 -13 -30 0 -12 8 -11 10 8 10 12 0 22 -4 22 -10z m-1290 -10 c0
-5 -6 -10 -14 -10 -8 0 -18 5 -21 10 -3 6 3 10 14 10 12 0 21 -4 21 -10z m184
-52 c16 -31 13 -73 -4 -63 -5 3 -7 12 -3 20 3 8 0 15 -6 15 -6 0 -8 7 -5 15 7
18 -7 20 -23 4 -12 -12 -33 -4 -33 12 0 6 9 7 20 4 14 -5 20 -2 20 9 0 26 18
18 34 -16z m980 1 c-4 -8 4 -9 27 -4 25 4 30 3 19 -4 -13 -9 -13 -11 0 -11 12
0 12 -2 1 -12 -11 -10 -14 -10 -18 0 -3 6 -13 12 -24 12 -19 0 -25 11 -12 23
10 11 15 8 7 -4z m-124 -9 c0 -5 -7 -10 -15 -10 -8 0 -14 -3 -14 -7 1 -5 1
-15 0 -23 -1 -12 -4 -12 -17 2 -14 14 -14 18 -3 32 16 17 49 21 49 6z m-750
-25 c7 -9 8 -15 2 -15 -5 0 -12 7 -16 15 -3 8 -4 15 -2 15 2 0 9 -7 16 -15z
m145 -14 c10 -17 -12 -21 -25 -6 -10 12 -10 15 3 15 9 0 18 -4 22 -9z m-641
-53 c-9 -15 -22 -8 -19 10 2 9 4 19 4 22 1 3 5 -2 10 -10 6 -8 7 -18 5 -22z
m1171 3 c3 -5 1 -12 -4 -15 -5 -3 -11 1 -15 9 -6 16 9 21 19 6z m135 -12 c0
-11 -27 -12 -34 0 -3 4 -3 11 0 14 8 8 34 -3 34 -14z m-813 -5 c-3 -3 -12 -4
-19 -1 -8 3 -5 6 6 6 11 1 17 -2 13 -5z m633 -14 c0 -5 10 -10 23 -11 18 -1
17 -2 -7 -9 -16 -5 -32 -14 -36 -20 -4 -7 -18 -10 -31 -7 l-24 4 22 8 c29 9
19 28 -10 21 -13 -4 -9 0 8 9 36 17 55 19 55 5z m-1130 -31 c0 -5 -4 -9 -10
-9 -5 0 -10 7 -10 16 0 8 5 12 10 9 6 -3 10 -10 10 -16z m223 -19 c-8 -29 -24
-36 -19 -8 3 13 5 24 5 26 1 1 5 2 10 2 5 0 7 -9 4 -20z m472 -49 c-3 -6 -11
-11 -17 -11 -6 0 -6 6 2 15 14 17 26 13 15 -4z m259 -6 c3 -8 0 -15 -7 -15 -9
0 -9 -2 0 -8 8 -5 2 -12 -19 -20 l-31 -11 21 19 c12 11 19 27 16 35 -4 8 -2
15 4 15 5 0 12 -7 16 -15z m-834 -25 c0 -5 -4 -10 -10 -10 -5 0 -10 5 -10 10
0 6 5 10 10 10 6 0 10 -4 10 -10z"/>
<path d="M2596 1505 c4 -8 12 -15 19 -15 7 0 15 7 19 15 4 11 -1 15 -19 15
-18 0 -23 -4 -19 -15z"/>
<path d="M2688 1143 c6 -2 18 -2 25 0 6 3 1 5 -13 5 -14 0 -19 -2 -12 -5z"/>
<path d="M640 906 c0 -9 30 -14 35 -6 4 6 -3 10 -14 10 -12 0 -21 -2 -21 -4z"/>
<path d="M741 822 c-1 -25 19 -26 27 -2 3 7 0 10 -6 6 -6 -3 -13 0 -15 6 -3 7
-6 3 -6 -10z"/>
<path d="M460 820 c0 -13 11 -13 30 0 12 8 11 10 -7 10 -13 0 -23 -4 -23 -10z"/>
<path d="M410 810 c0 -5 5 -10 11 -10 5 0 7 5 4 10 -3 6 -8 10 -11 10 -2 0 -4
-4 -4 -10z"/>
<path d="M469 757 c6 -8 8 -17 4 -20 -3 -4 0 -7 9 -7 24 0 29 12 10 26 -22 17
-38 18 -23 1z"/>
<path d="M530 740 c-12 -8 -11 -10 7 -10 12 0 25 5 28 10 8 13 -15 13 -35 0z"/>
<path d="M650 715 c0 -17 9 -19 28 -6 11 7 10 10 -3 15 -23 9 -25 8 -25 -9z"/>
<path d="M723 703 c-3 -10 -8 -21 -10 -25 -2 -5 0 -8 4 -8 14 0 34 38 23 45
-6 4 -13 -2 -17 -12z"/>
<path d="M605 700 c3 -5 10 -10 16 -10 5 0 9 5 9 10 0 6 -7 10 -16 10 -8 0
-12 -4 -9 -10z"/>
<path d="M280 661 c0 -6 -10 -11 -22 -12 -13 0 -17 -3 -10 -6 6 -2 10 -9 6
-14 -10 -17 13 -9 30 10 11 12 14 21 7 26 -6 3 -11 1 -11 -4z"/>
<path d="M995 814 c9 -9 19 -13 23 -10 3 4 0 11 -8 16 -24 15 -33 11 -15 -6z"/>
<path d="M950 800 c0 -13 11 -13 30 0 12 8 11 10 -7 10 -13 0 -23 -4 -23 -10z"/>
<path d="M3105 5177 c-13 -58 -23 -192 -14 -198 6 -3 8 -17 6 -30 -2 -13 -2
-19 0 -14 4 10 77 65 87 65 3 0 3 -6 0 -13 -2 -7 1 -21 9 -31 14 -19 15 -18
45 54 17 41 15 -141 -4 -240 -8 -47 -22 -121 -30 -165 -11 -61 -20 -84 -38
-100 -14 -11 -32 -42 -41 -70 -39 -117 -137 -309 -147 -288 -3 4 1 70 7 146
11 119 15 140 32 152 18 13 21 30 28 187 4 103 12 189 21 214 14 41 11 74 -7
74 -5 0 -9 -9 -9 -20 0 -11 -4 -20 -10 -20 -5 0 -7 -6 -5 -13 3 -7 1 -42 -5
-77 -26 -163 -41 -259 -46 -312 l-7 -57 -46 -15 c-39 -13 -115 -32 -196 -49
-11 -3 5 -5 36 -6 31 0 71 4 89 10 25 9 34 9 40 0 14 -24 19 -207 9 -306 -15
-133 -15 -134 -25 -180 -4 -22 -7 -48 -5 -57 1 -11 -4 -18 -13 -18 -15 0 -32
-35 -28 -56 1 -6 -5 -17 -13 -24 -20 -17 -19 -37 3 -49 12 -8 13 -10 3 -11 -8
0 -12 -2 -9 -5 8 -9 60 14 54 23 -3 5 6 19 19 30 14 12 25 26 25 32 0 5 7 10
16 10 8 0 12 4 9 10 -3 5 15 30 40 55 25 25 44 45 40 45 -5 0 23 49 35 60 12
11 70 99 70 105 0 4 14 27 30 52 17 24 30 48 30 53 0 8 39 93 101 221 4 9 12
35 18 57 8 29 17 42 33 44 12 2 22 10 23 18 2 8 10 43 18 76 16 60 31 168 42
289 3 33 9 101 14 150 6 50 7 111 4 137 -7 60 -19 65 -195 72 -136 5 -138 5
-143 -17z m167 -739 c-8 -8 -17 -8 -34 0 -22 10 -21 11 12 11 26 1 31 -2 22
-11z m-352 -572 c0 -3 -4 -8 -10 -11 -5 -3 -10 -1 -10 4 0 6 5 11 10 11 6 0
10 -2 10 -4z"/>
<path d="M632 5055 c0 -16 2 -22 5 -12 2 9 2 23 0 30 -3 6 -5 -1 -5 -18z"/>
<path d="M3883 4029 c-18 -5 -33 -12 -33 -15 0 -9 53 5 65 17 10 10 11 10 -32
-2z"/>
<path d="M3773 3992 c-24 -9 -43 -20 -43 -24 0 -13 23 -9 44 7 11 8 30 15 43
15 13 0 23 5 23 10 0 13 -16 11 -67 -8z"/>
<path d="M4629 3984 c-9 -12 -24 -15 -50 -11 -36 5 -40 2 -91 -56 -29 -34 -84
-95 -123 -137 -38 -42 -101 -111 -140 -154 -38 -44 -89 -99 -112 -124 -23 -24
-55 -61 -70 -81 -15 -20 -56 -66 -91 -103 -39 -40 -62 -73 -59 -81 3 -8 36
-23 73 -33 l68 -18 20 29 c12 16 33 42 49 58 15 16 27 32 27 35 0 4 13 21 28
39 15 17 35 41 44 52 10 12 23 21 28 21 16 0 -7 -37 -30 -50 -11 -6 -19 -14
-19 -18 3 -20 -3 -31 -20 -37 -11 -3 -23 -16 -27 -28 -3 -12 -21 -38 -40 -57
-44 -47 -35 -59 71 -94 105 -34 121 -34 144 7 11 17 29 46 41 62 44 63 113
171 118 185 7 19 162 250 168 250 2 0 3 -11 2 -25 -1 -14 -8 -25 -15 -25 -7 0
-13 -5 -13 -10 0 -6 -18 -38 -40 -71 -22 -33 -40 -63 -40 -66 0 -3 -11 -18
-25 -35 -14 -16 -25 -38 -25 -49 0 -10 -4 -19 -10 -19 -5 0 -10 -6 -10 -14 0
-7 -13 -30 -30 -51 -16 -21 -30 -42 -30 -47 0 -6 -18 -33 -40 -61 -23 -28 -39
-57 -38 -65 4 -21 196 -88 216 -76 16 10 62 88 62 105 0 6 9 22 20 36 11 14
20 32 20 40 0 8 9 26 20 40 19 25 20 41 20 368 0 291 -2 344 -15 355 -8 7 -12
16 -9 21 9 16 -13 10 -27 -7z m-269 -413 c0 -12 -20 -25 -27 -18 -7 7 6 27 18
27 5 0 9 -4 9 -9z m-40 -51 c-11 -20 -30 -28 -30 -12 0 11 22 32 32 32 5 0 4
-9 -2 -20z m-42 -52 c-2 -6 -15 -18 -28 -27 -21 -14 -23 -14 -16 -1 16 27 28
40 38 40 5 0 8 -5 6 -12z m302 -158 c0 -5 -2 -10 -4 -10 -3 0 -8 5 -11 10 -3
6 -1 10 4 10 6 0 11 -4 11 -10z m-115 -190 c3 -5 1 -10 -4 -10 -6 0 -11 5 -11
10 0 6 2 10 4 10 3 0 8 -4 11 -10z"/>
<path d="M3684 3955 c-10 -8 -14 -15 -7 -15 19 0 43 11 43 21 0 13 -14 11 -36
-6z"/>
<path d="M3556 3909 c-38 -11 -83 -26 -100 -33 -17 -7 -80 -29 -140 -48 -87
-29 -115 -34 -140 -27 -70 20 -176 3 -176 -29 0 -4 50 -6 110 -5 110 1 175 17
285 68 17 8 66 24 109 35 90 25 126 39 126 52 0 4 -1 8 -2 7 -2 -1 -34 -10
-72 -20z"/>
<path d="M881 3618 c-1 -12 -9 -18 -23 -18 -21 0 -21 0 -2 -14 17 -13 20 -12
27 6 4 12 6 26 3 32 -2 6 -5 3 -5 -6z"/>
<path d="M2765 3619 c-4 -6 -5 -13 -2 -16 7 -7 27 6 27 18 0 12 -17 12 -25 -2z"/>
<path d="M3766 3215 c-10 -27 -6 -59 9 -79 8 -11 15 -23 15 -26 0 -4 -25 -37
-55 -75 -43 -55 -52 -72 -42 -81 15 -15 48 -22 497 -117 91 -20 199 -43 240
-52 41 -9 113 -24 160 -34 l85 -17 3 90 c1 49 -1 92 -5 96 -4 4 -44 19 -88 33
-190 62 -482 161 -625 212 -85 31 -162 59 -171 61 -10 3 -19 -1 -23 -11z"/>
<path d="M4668 3204 c-5 -4 -8 -18 -8 -30 0 -13 -4 -25 -9 -29 -13 -8 -71
-115 -71 -131 0 -8 21 -20 48 -27 l47 -14 3 58 c4 84 -2 182 -10 173z"/>
<path d="M1760 2964 c0 -14 4 -23 10 -19 6 3 10 15 10 26 0 10 -4 19 -10 19
-5 0 -10 -12 -10 -26z"/>
<path d="M2106 2245 c3 -27 1 -63 -5 -80 -10 -28 -10 -29 4 -11 16 22 19 89 5
121 -6 13 -7 4 -4 -30z"/>
<path d="M2076 2113 c-6 -14 -5 -15 5 -6 7 7 10 15 7 18 -3 3 -9 -2 -12 -12z"/>
<path d="M480 1400 c0 -5 5 -10 10 -10 6 0 10 5 10 10 0 6 -4 10 -10 10 -5 0
-10 -4 -10 -10z"/>
<path d="M420 1380 c-11 -7 -9 -11 13 -19 36 -14 47 -14 47 0 0 5 -4 8 -9 5
-13 -8 -42 4 -35 15 7 11 3 11 -16 -1z"/>
<path d="M375 1360 c3 -5 14 -10 23 -10 15 0 15 2 2 10 -20 13 -33 13 -25 0z"/>
<path d="M2897 1274 c-7 -73 0 -104 23 -104 11 0 19 42 22 115 2 54 0 60 -19
63 -18 3 -21 -4 -26 -74z"/>
<path d="M360 1333 c8 -3 18 -10 21 -16 4 -5 12 -6 18 -3 21 14 11 26 -21 25
-18 0 -26 -3 -18 -6z"/>
<path d="M3368 1302 c-25 -13 -34 -24 -36 -48 -5 -55 76 -96 120 -61 22 17 33
90 16 105 -24 19 -65 21 -100 4z m65 -29 c-7 -2 -21 -2 -30 0 -10 3 -4 5 12 5
17 0 24 -2 18 -5z m-3 -43 c0 -5 -12 -10 -27 -9 l-28 1 25 8 c14 4 26 8 28 9
1 1 2 -3 2 -9z"/>
<path d="M3514 1285 c-15 -83 19 -126 40 -50 10 33 16 41 39 43 20 3 27 8 25
20 -2 13 -15 17 -50 18 -46 2 -48 1 -54 -31z"/>
<path d="M3015 1301 c-35 -15 -48 -38 -41 -74 16 -86 150 -69 150 18 0 19 -4
39 -10 45 -14 14 -75 20 -99 11z m65 -56 c0 -18 -7 -26 -24 -31 -43 -11 -65
24 -28 45 31 19 52 13 52 -14z"/>
<path d="M3164 1295 c-2 -5 -5 -43 -6 -84 -2 -52 1 -75 10 -78 7 -3 14 7 18
24 5 26 9 29 35 25 61 -9 106 55 74 104 -13 21 -22 23 -71 21 -31 -1 -58 -6
-60 -12z m94 -51 c-3 -20 -29 -29 -53 -20 -20 7 -8 36 19 46 25 10 39 -1 34
-26z"/>
<path d="M3055 920 c-3 -5 -1 -10 4 -10 6 0 11 5 11 10 0 6 -2 10 -4 10 -3 0
-8 -4 -11 -10z"/>
<path d="M3150 920 c0 -5 5 -10 11 -10 5 0 7 5 4 10 -3 6 -8 10 -11 10 -2 0
-4 -4 -4 -10z"/>
<path d="M2780 904 c0 -14 3 -14 15 -4 8 7 15 14 15 16 0 2 -7 4 -15 4 -8 0
-15 -7 -15 -16z"/>
<path d="M28 904 c-5 -4 -8 -19 -8 -33 1 -23 2 -24 11 -8 11 19 9 53 -3 41z"/>
<path d="M310 867 c0 -9 -4 -17 -9 -17 -15 0 -21 -43 -8 -59 9 -12 5 -11 -16
2 -16 10 -31 16 -35 13 -3 -3 -1 -6 5 -6 6 0 13 -9 16 -19 4 -16 10 -18 33
-12 26 7 47 31 27 31 -5 0 -9 9 -10 20 -1 11 2 20 7 20 9 0 7 26 -3 36 -4 4
-7 0 -7 -9z"/>
<path d="M1310 840 c0 -5 5 -10 10 -10 6 0 10 5 10 10 0 6 -4 10 -10 10 -5 0
-10 -4 -10 -10z"/>
<path d="M8 823 c7 -3 16 -2 19 1 4 3 -2 6 -13 5 -11 0 -14 -3 -6 -6z"/>
<path d="M100 820 c0 -5 5 -10 10 -10 6 0 10 5 10 10 0 6 -4 10 -10 10 -5 0
-10 -4 -10 -10z"/>
<path d="M200 813 c-23 -10 -30 -17 -20 -21 7 -3 16 0 18 7 2 6 10 11 17 11 8
0 17 5 20 10 8 13 7 12 -35 -7z"/>
<path d="M1300 806 c0 -7 9 -16 20 -19 11 -3 20 -2 20 2 0 3 -9 12 -20 19 -16
10 -20 10 -20 -2z"/>
<path d="M5 800 c-3 -5 -1 -10 4 -10 6 0 11 5 11 10 0 6 -2 10 -4 10 -3 0 -8
-4 -11 -10z"/>
<path d="M26 794 c-4 -9 -4 -19 -2 -21 8 -8 26 8 26 23 0 19 -16 18 -24 -2z"/>
<path d="M1264 775 c-10 -8 -14 -14 -9 -15 15 0 40 18 34 24 -3 3 -14 -1 -25
-9z"/>
<path d="M1385 781 c-3 -5 -1 -12 5 -16 5 -3 10 1 10 9 0 18 -6 21 -15 7z"/>
<path d="M1480 775 c0 -6 9 -11 20 -11 11 0 20 5 20 11 0 6 -9 11 -20 11 -11
0 -20 -5 -20 -11z"/>
<path d="M1 754 c0 -11 3 -14 6 -6 3 7 2 16 -1 19 -3 4 -6 -2 -5 -13z"/>
<path d="M285 750 c-3 -5 1 -10 9 -10 9 0 16 5 16 10 0 6 -4 10 -9 10 -6 0
-13 -4 -16 -10z"/>
<path d="M1050 757 c0 -5 9 -20 20 -34 11 -14 20 -21 20 -15 0 12 -39 60 -40
49z"/>
<path d="M1795 739 c-4 -6 -13 -8 -19 -6 -7 3 -13 -1 -13 -9 0 -19 11 -18 32
6 10 11 15 20 12 20 -3 0 -9 -5 -12 -11z"/>
<path d="M1385 730 c-3 -5 1 -10 9 -10 9 0 16 5 16 10 0 6 -4 10 -9 10 -6 0
-13 -4 -16 -10z"/>
<path d="M1010 700 c0 -5 4 -10 9 -10 6 0 13 5 16 10 3 6 -1 10 -9 10 -9 0
-16 -4 -16 -10z"/>
<path d="M962 684 c-7 -8 -8 -14 -3 -14 10 0 25 19 20 25 -2 1 -10 -3 -17 -11z"/>
<path d="M1257 663 c-4 -3 -7 -15 -7 -26 0 -25 13 -14 17 13 3 21 1 24 -10 13z"/>
<path d="M930 650 c0 -5 5 -10 10 -10 6 0 10 5 10 10 0 6 -4 10 -10 10 -5 0
-10 -4 -10 -10z"/>
<path d="M1638 653 c7 -3 16 -2 19 1 4 3 -2 6 -13 5 -11 0 -14 -3 -6 -6z"/>
<path d="M420 635 c-7 -9 -8 -15 -2 -15 5 0 12 7 16 15 3 8 4 15 2 15 -2 0 -9
-7 -16 -15z"/>
<path d="M1184 641 c3 -5 15 -7 26 -4 28 7 25 13 -6 13 -14 0 -23 -4 -20 -9z"/>
<path d="M15 630 c-3 -5 -2 -10 4 -10 5 0 13 5 16 10 3 6 2 10 -4 10 -5 0 -13
-4 -16 -10z"/>
<path d="M1053 633 c-15 -5 -17 -23 -4 -23 5 0 11 7 15 15 3 8 4 15 3 14 -1 0
-8 -3 -14 -6z"/>
<path d="M1085 631 c-3 -5 -1 -12 5 -16 5 -3 10 1 10 9 0 18 -6 21 -15 7z"/>
<path d="M885 620 c-3 -5 -1 -10 4 -10 6 0 11 5 11 10 0 6 -2 10 -4 10 -3 0
-8 -4 -11 -10z"/>
<path d="M966 621 c-4 -5 3 -7 14 -4 23 6 26 13 6 13 -8 0 -17 -4 -20 -9z"/>
<path d="M1148 613 c-20 -5 -32 -32 -13 -29 8 1 18 5 21 9 4 4 17 7 28 7 17 0
18 2 6 10 -8 5 -17 9 -20 9 -3 -1 -12 -3 -22 -6z"/>
<path d="M1220 610 c0 -5 7 -10 16 -10 8 0 12 5 9 10 -3 6 -10 10 -16 10 -5 0
-9 -4 -9 -10z"/>
<path d="M705 590 c4 -6 11 -8 16 -5 14 9 11 15 -7 15 -8 0 -12 -5 -9 -10z"/>
<path d="M903 581 c1 -14 9 -26 17 -28 10 -3 11 -2 4 4 -7 4 -14 17 -17 28 -5
16 -5 15 -4 -4z"/>
<path d="M1598 593 c7 -3 16 -2 19 1 4 3 -2 6 -13 5 -11 0 -14 -3 -6 -6z"/>
<path d="M455 559 c-28 -17 -28 -19 -7 -19 12 0 22 -4 22 -10 0 -5 3 -10 8
-10 4 0 7 14 7 30 0 17 0 30 0 29 0 0 -13 -9 -30 -20z"/>
<path d="M513 561 c-10 -16 -9 -20 10 -25 31 -8 37 -7 37 4 0 6 -6 10 -14 10
-8 0 -16 7 -18 15 -2 13 -5 12 -15 -4z"/>
<path d="M780 552 c0 -12 -5 -24 -12 -28 -7 -4 -8 -3 -4 4 5 8 1 10 -10 5 -15
-6 -15 -7 -1 -18 9 -7 14 -15 10 -19 -4 -4 0 -4 10 0 9 3 17 12 17 20 0 8 9
14 20 14 11 0 20 7 20 15 0 8 -4 15 -9 15 -5 0 -16 3 -25 6 -11 4 -16 0 -16
-14z"/>
<path d="M860 550 c0 -19 3 -21 12 -12 9 9 9 15 0 24 -9 9 -12 7 -12 -12z"/>
<path d="M0 550 c0 -5 5 -10 10 -10 6 0 10 5 10 10 0 6 -4 10 -10 10 -5 0 -10
-4 -10 -10z"/>
<path d="M946 552 c-5 -9 -1 -18 10 -27 18 -14 18 -14 1 -15 -10 0 -15 -4 -12
-10 3 -5 21 -10 38 -9 18 0 27 3 20 5 -7 3 -9 12 -6 20 3 9 -2 14 -15 14 -12
0 -22 8 -24 18 -3 13 -5 14 -12 4z"/>
<path d="M1000 550 c0 -5 5 -10 10 -10 6 0 10 5 10 10 0 6 -4 10 -10 10 -5 0
-10 -4 -10 -10z"/>
<path d="M1064 540 c0 -13 4 -16 10 -10 7 7 7 13 0 20 -6 6 -10 3 -10 -10z"/>
<path d="M411 521 c-9 -6 -10 -11 -2 -15 13 -8 31 1 31 15 0 11 -11 11 -29 0z"/>
<path d="M1495 520 c-3 -5 -1 -10 4 -10 6 0 11 5 11 10 0 6 -2 10 -4 10 -3 0
-8 -4 -11 -10z"/>
<path d="M0 511 c0 -5 9 -11 20 -14 24 -6 27 8 4 17 -21 8 -24 8 -24 -3z"/>
<path d="M910 510 c-13 -8 -12 -10 3 -10 9 0 17 5 17 10 0 12 -1 12 -20 0z"/>
<path d="M794 492 c-10 -10 -28 -22 -39 -27 -18 -7 -18 -9 -3 -12 10 -3 32 9
50 26 18 17 28 31 22 31 -5 0 -19 -8 -30 -18z"/>
<path d="M232 475 c6 -14 15 -25 20 -25 12 0 9 12 -6 33 -19 25 -27 21 -14 -8z"/>
<path d="M730 490 c-8 -5 -11 -12 -7 -16 4 -4 13 -2 19 4 15 15 7 24 -12 12z"/>
<path d="M1320 490 c-8 -5 -10 -10 -5 -11 6 0 20 -2 33 -5 21 -4 22 -2 8 11
-17 18 -17 18 -36 5z"/>
<path d="M905 480 c3 -5 8 -10 11 -10 2 0 4 5 4 10 0 6 -5 10 -11 10 -5 0 -7
-4 -4 -10z"/>
<path d="M10 470 c-9 -6 -10 -10 -3 -10 6 0 15 5 18 10 8 12 4 12 -15 0z"/>
<path d="M960 469 c0 -5 5 -7 10 -4 6 3 10 8 10 11 0 2 -4 4 -10 4 -5 0 -10
-5 -10 -11z"/>
<path d="M478 418 c20 -32 21 -36 6 -42 -9 -4 -14 -9 -11 -13 4 -3 1 -13 -6
-21 -10 -13 -8 -15 13 -9 14 4 28 7 31 7 3 0 4 12 2 28 -4 20 -2 23 6 12 14
-21 19 -10 14 28 -4 22 -11 32 -23 32 -10 0 -26 3 -36 7 -16 6 -15 2 4 -29z"/>
<path d="M1211 434 c0 -11 3 -14 6 -6 3 7 2 16 -1 19 -3 4 -6 -2 -5 -13z"/>
<path d="M55 430 c3 -5 13 -10 21 -10 8 0 14 -7 14 -16 0 -8 5 -12 11 -9 7 5
4 14 -7 26 -18 19 -50 27 -39 9z"/>
<path d="M718 428 c9 -9 15 -9 24 0 9 9 7 12 -12 12 -19 0 -21 -3 -12 -12z"/>
<path d="M170 410 c0 -5 5 -10 10 -10 6 0 10 5 10 10 0 6 -4 10 -10 10 -5 0
-10 -4 -10 -10z"/>
<path d="M740 410 c-8 -5 -11 -12 -7 -16 4 -4 13 -2 19 4 15 15 7 24 -12 12z"/>
<path d="M393 380 c-6 -24 -28 -26 -37 -4 -4 9 -9 14 -12 11 -3 -3 0 -15 8
-26 8 -12 18 -18 22 -14 3 4 13 -2 21 -13 14 -18 15 -17 10 10 -2 17 1 36 7
43 8 9 7 13 -2 13 -6 0 -14 -9 -17 -20z"/>
<path d="M434 371 c0 -11 4 -17 8 -15 4 3 8 12 8 20 0 8 -4 14 -8 14 -4 0 -8
-9 -8 -19z"/>
<path d="M765 380 c-3 -5 -1 -10 4 -10 6 0 11 5 11 10 0 6 -2 10 -4 10 -3 0
-8 -4 -11 -10z"/>
<path d="M561 364 c-18 -8 -30 -18 -26 -24 5 -8 15 -6 31 5 21 14 28 12 26 -6
-1 -3 7 -6 16 -6 16 0 54 38 46 46 -2 3 -11 -4 -19 -15 -14 -17 -16 -18 -28
-3 -11 15 -17 15 -46 3z"/>
<path d="M810 370 c0 -5 -8 -11 -17 -13 -12 -3 -8 -5 9 -6 30 -1 46 14 23 23
-8 3 -15 1 -15 -4z"/>
<path d="M910 345 c0 -21 17 -35 33 -29 19 7 23 24 6 24 -5 0 -8 4 -5 8 2 4
-4 8 -15 8 -10 0 -19 -5 -19 -11z"/>
<path d="M1026 351 c-3 -5 3 -11 13 -14 14 -3 18 -1 14 9 -6 16 -19 18 -27 5z"/>
<path d="M690 340 c0 -6 7 -10 15 -10 8 0 15 2 15 4 0 2 -7 6 -15 10 -8 3 -15
1 -15 -4z"/>
<path d="M878 343 c7 -3 16 -2 19 1 4 3 -2 6 -13 5 -11 0 -14 -3 -6 -6z"/>
<path d="M265 330 c3 -5 10 -10 16 -10 5 0 9 5 9 10 0 6 -7 10 -16 10 -8 0
-12 -4 -9 -10z"/>
<path d="M310 320 c-9 -6 -10 -10 -3 -10 6 0 14 -8 16 -17 4 -16 5 -16 6 1 1
12 6 16 16 12 9 -3 15 0 15 9 0 17 -28 20 -50 5z"/>
<path d="M830 312 c0 -4 9 -8 19 -8 11 0 17 4 15 8 -3 4 -12 8 -20 8 -8 0 -14
-4 -14 -8z"/>
<path d="M776 301 c-4 -7 -5 -15 -2 -18 9 -9 19 4 14 18 -4 11 -6 11 -12 0z"/>
<path d="M270 290 c-9 -6 -10 -10 -3 -10 6 0 15 5 18 10 8 12 4 12 -15 0z"/>
<path d="M505 280 c3 -5 8 -10 11 -10 2 0 4 5 4 10 0 6 -5 10 -11 10 -5 0 -7
-4 -4 -10z"/>
<path d="M735 271 c-3 -11 -15 -23 -27 -26 -15 -5 -17 -10 -8 -18 8 -9 14 -8
21 6 6 9 18 17 27 18 9 0 12 3 5 5 -7 3 -9 12 -6 20 3 8 3 14 0 14 -3 0 -8 -9
-12 -19z"/>
<path d="M800 269 c0 -5 5 -7 10 -4 6 3 10 8 10 11 0 2 -4 4 -10 4 -5 0 -10
-5 -10 -11z"/>
<path d="M610 230 c0 -5 7 -10 16 -10 8 0 12 5 9 10 -3 6 -10 10 -16 10 -5 0
-9 -4 -9 -10z"/>
</g>
</svg>
